<svg viewBox="0 0 600 200" xmlns="http://www.w3.org/2000/svg">
  <rect width="600" height="200" fill="white"/>
  <rect width="600" height="200" fill="#faf5ff" opacity="0.6"/>

  <!-- Search bar -->
  <rect x="28" y="20" width="320" height="34" rx="17" fill="white" stroke="#e9d5ff" stroke-width="1.5"/>
  <circle cx="48" cy="37" r="9" fill="none" stroke="#a855f7" stroke-width="2"/>
  <line x1="55" y1="44" x2="61" y2="50" stroke="#a855f7" stroke-width="2" stroke-linecap="round"/>
  <text x="72" y="41.5" font-family="system-ui,sans-serif" font-size="10.5" fill="#9ca3af">What is the best SEO strategy?</text>

  <!-- AI Answer box -->
  <rect x="28" y="64" width="320" height="92" rx="10" fill="white" stroke="#c084fc" stroke-width="1.5"/>
  <rect x="36" y="73" width="64" height="18" rx="9" fill="#9333ea"/>
  <text x="68" y="85.5" font-family="system-ui,sans-serif" font-size="8.5" fill="white" font-weight="700" text-anchor="middle">✦ AI Answer</text>
  <rect x="36" y="100" width="280" height="7" rx="3.5" fill="#e9d5ff"/>
  <rect x="36" y="112" width="256" height="7" rx="3.5" fill="#e9d5ff"/>
  <rect x="36" y="124" width="210" height="7" rx="3.5" fill="#f3e8ff"/>
  <rect x="36" y="140" width="64" height="10" rx="5" fill="#f3e8ff"/>
  <text x="68" y="148.5" font-family="system-ui,sans-serif" font-size="7" fill="#9333ea" text-anchor="middle">source 1</text>
  <rect x="108" y="140" width="64" height="10" rx="5" fill="#f3e8ff"/>
  <text x="140" y="148.5" font-family="system-ui,sans-serif" font-size="7" fill="#9333ea" text-anchor="middle">source 2</text>

  <!-- Regular result -->
  <rect x="28" y="164" width="320" height="7" rx="3.5" fill="#e5e7eb" opacity="0.7"/>
  <rect x="28" y="176" width="280" height="7" rx="3.5" fill="#e5e7eb" opacity="0.4"/>

  <!-- Right: channels -->
  <text x="374" y="42" font-family="system-ui,sans-serif" font-size="8.5" fill="#64748b" font-weight="600" letter-spacing="0.5">CHANNELS</text>

  <rect x="374" y="52" width="196" height="38" rx="9" fill="white" stroke="#e9d5ff" stroke-width="1.2"/>
  <circle cx="396" cy="71" r="12" fill="#f3e8ff"/>
  <rect x="392" y="62" width="8" height="13" rx="4" fill="#a855f7"/>
  <path d="M 389 73 Q 389 81 396 81 Q 403 81 403 73" fill="none" stroke="#a855f7" stroke-width="1.5"/>
  <line x1="396" y1="81" x2="396" y2="85" stroke="#a855f7" stroke-width="1.5"/>
  <text x="416" y="66" font-family="system-ui,sans-serif" font-size="9.5" fill="#374151" font-weight="500">Voice Search</text>
  <text x="416" y="79" font-family="system-ui,sans-serif" font-size="8.5" fill="#a855f7">Optimized ✓</text>

  <rect x="374" y="98" width="196" height="38" rx="9" fill="white" stroke="#e9d5ff" stroke-width="1.2"/>
  <circle cx="396" cy="117" r="12" fill="#f3e8ff"/>
  <rect x="388" y="109" width="16" height="16" rx="3" fill="#f3e8ff" stroke="#a855f7" stroke-width="1.2"/>
  <rect x="391" y="112" width="10" height="2" rx="1" fill="#a855f7"/>
  <rect x="391" y="116" width="10" height="2" rx="1" fill="#d8b4fe"/>
  <rect x="391" y="120" width="7" height="2" rx="1" fill="#d8b4fe"/>
  <text x="416" y="112" font-family="system-ui,sans-serif" font-size="9.5" fill="#374151" font-weight="500">Featured Snippet</text>
  <text x="416" y="125" font-family="system-ui,sans-serif" font-size="8.5" fill="#a855f7">Detected ✓</text>

  <rect x="374" y="144" width="196" height="38" rx="9" fill="white" stroke="#e9d5ff" stroke-width="1.2"/>
  <circle cx="396" cy="163" r="12" fill="#f3e8ff"/>
  <text x="396" y="167.5" font-family="system-ui,sans-serif" font-size="11" fill="#9333ea" text-anchor="middle" font-weight="700">AI</text>
  <text x="416" y="158" font-family="system-ui,sans-serif" font-size="9.5" fill="#374151" font-weight="500">AI Summaries</text>
  <text x="416" y="171" font-family="system-ui,sans-serif" font-size="8.5" fill="#a855f7">Ready ✓</text>
</svg>
