<svg viewBox="0 0 600 200" xmlns="http://www.w3.org/2000/svg">
  <rect width="600" height="200" fill="white"/>
  <rect width="600" height="200" fill="#ecfdf5" opacity="0.5"/>

  <!-- Dark code block -->
  <rect x="22" y="16" width="298" height="168" rx="10" fill="#0f172a"/>
  <rect x="22" y="16" width="298" height="28" rx="10" fill="#1e293b"/>
  <rect x="22" y="36" width="298" height="8" fill="#1e293b"/>
  <circle cx="40" cy="30" r="4" fill="#f87171"/>
  <circle cx="54" cy="30" r="4" fill="#fbbf24"/>
  <circle cx="68" cy="30" r="4" fill="#4ade80"/>
  <text x="171" y="33.5" font-family="monospace" font-size="8" fill="#64748b" text-anchor="middle">schema.jsonld</text>

  <text x="38" y="62" font-family="monospace" font-size="9.5" fill="#7dd3fc">{</text>
  <text x="38" y="77" font-family="monospace" font-size="9" fill="#94a3b8">  "@context": </text>
  <text x="140" y="77" font-family="monospace" font-size="9" fill="#86efac">"schema.org"</text>
  <text x="38" y="92" font-family="monospace" font-size="9" fill="#94a3b8">  "@type": </text>
  <text x="118" y="92" font-family="monospace" font-size="9" fill="#c084fc">"Organization"</text>
  <text x="38" y="107" font-family="monospace" font-size="9" fill="#94a3b8">  "name": </text>
  <text x="113" y="107" font-family="monospace" font-size="9" fill="#86efac">"Acme Corp"</text>
  <text x="38" y="122" font-family="monospace" font-size="9" fill="#94a3b8">  "url": </text>
  <text x="95" y="122" font-family="monospace" font-size="9" fill="#86efac">"acme.com"</text>
  <text x="38" y="137" font-family="monospace" font-size="9" fill="#7dd3fc">  "sameAs": [</text>
  <text x="54" y="152" font-family="monospace" font-size="9" fill="#86efac">"x.com/acme"</text>
  <text x="38" y="167" font-family="monospace" font-size="9" fill="#7dd3fc">  ]</text>
  <text x="38" y="177" font-family="monospace" font-size="9" fill="#7dd3fc">}</text>

  <!-- Right: Schema type chips -->
  <text x="344" y="36" font-family="system-ui,sans-serif" font-size="8.5" fill="#64748b" font-weight="600" letter-spacing="0.5">DETECTED TYPES</text>

  <rect x="336" y="46" width="236" height="34" rx="8" fill="white" stroke="#a7f3d0" stroke-width="1.3"/>
  <rect x="346" y="54" width="12" height="18" rx="3" fill="#10b981"/>
  <text x="366" y="66" font-family="system-ui,sans-serif" font-size="10.5" fill="#374151" font-weight="500">Organization</text>
  <circle cx="554" cy="63" r="9" fill="#d1fae5"/>
  <path d="M 551 63 L 554 66 L 559 59" stroke="#10b981" stroke-width="1.8" fill="none" stroke-linecap="round" stroke-linejoin="round"/>

  <rect x="336" y="88" width="236" height="34" rx="8" fill="white" stroke="#a7f3d0" stroke-width="1.3"/>
  <rect x="346" y="96" width="12" height="18" rx="3" fill="#34d399"/>
  <text x="366" y="108" font-family="system-ui,sans-serif" font-size="10.5" fill="#374151" font-weight="500">LocalBusiness</text>
  <circle cx="554" cy="105" r="9" fill="#d1fae5"/>
  <path d="M 551 105 L 554 108 L 559 101" stroke="#10b981" stroke-width="1.8" fill="none" stroke-linecap="round" stroke-linejoin="round"/>

  <rect x="336" y="130" width="236" height="34" rx="8" fill="white" stroke="#a7f3d0" stroke-width="1.3"/>
  <rect x="346" y="138" width="12" height="18" rx="3" fill="#6ee7b7"/>
  <text x="366" y="150" font-family="system-ui,sans-serif" font-size="10.5" fill="#374151" font-weight="500">FAQPage</text>
  <circle cx="554" cy="147" r="9" fill="#d1fae5"/>
  <path d="M 551 147 L 554 150 L 559 143" stroke="#10b981" stroke-width="1.8" fill="none" stroke-linecap="round" stroke-linejoin="round"/>

  <rect x="336" y="172" width="236" height="24" rx="8" fill="#ecfdf5" stroke="#a7f3d0" stroke-width="1"/>
  <text x="454" y="187.5" font-family="system-ui,sans-serif" font-size="9" fill="#059669" font-weight="500" text-anchor="middle">+ 9 more types found</text>
</svg>
