<svg viewBox="0 0 600 200" xmlns="http://www.w3.org/2000/svg">
  <rect width="600" height="200" fill="white"/>
  <rect width="600" height="200" fill="#fffbeb" opacity="0.6"/>

  <!-- Connection lines -->
  <line x1="300" y1="100" x2="148" y2="46" stroke="#fcd34d" stroke-width="1.5" stroke-dasharray="5,3"/>
  <line x1="300" y1="100" x2="90" y2="100" stroke="#fcd34d" stroke-width="1.5" stroke-dasharray="5,3"/>
  <line x1="300" y1="100" x2="148" y2="154" stroke="#fcd34d" stroke-width="1.5" stroke-dasharray="5,3"/>
  <line x1="300" y1="100" x2="452" y2="46" stroke="#fcd34d" stroke-width="1.5" stroke-dasharray="5,3"/>
  <line x1="300" y1="100" x2="510" y2="100" stroke="#fcd34d" stroke-width="1.5" stroke-dasharray="5,3"/>
  <line x1="300" y1="100" x2="452" y2="154" stroke="#fcd34d" stroke-width="1.5" stroke-dasharray="5,3"/>

  <!-- Center: Website globe -->
  <circle cx="300" cy="100" r="44" fill="white" stroke="#fcd34d" stroke-width="2.5"/>
  <ellipse cx="300" cy="100" rx="44" ry="44" fill="none" stroke="#fde68a" stroke-width="1"/>
  <ellipse cx="300" cy="100" rx="20" ry="44" fill="none" stroke="#fde68a" stroke-width="1"/>
  <line x1="256" y1="100" x2="344" y2="100" stroke="#fde68a" stroke-width="1"/>
  <line x1="264" y1="75" x2="336" y2="75" stroke="#fde68a" stroke-width="0.8"/>
  <line x1="264" y1="125" x2="336" y2="125" stroke="#fde68a" stroke-width="0.8"/>
  <text x="300" y="107" font-family="system-ui,sans-serif" font-size="20" fill="#d97706" font-weight="800" text-anchor="middle">W</text>

  <!-- AI model circles LEFT -->
  <circle cx="120" cy="46" r="28" fill="white" stroke="#fcd34d" stroke-width="1.5"/>
  <text x="120" y="42" font-family="system-ui,sans-serif" font-size="8.5" fill="#92400e" font-weight="600" text-anchor="middle">Chat</text>
  <text x="120" y="53" font-family="system-ui,sans-serif" font-size="8.5" fill="#92400e" font-weight="600" text-anchor="middle">GPT</text>

  <circle cx="62" cy="100" r="28" fill="white" stroke="#fcd34d" stroke-width="1.5"/>
  <text x="62" y="104" font-family="system-ui,sans-serif" font-size="8.5" fill="#92400e" font-weight="600" text-anchor="middle">Claude</text>

  <circle cx="120" cy="154" r="28" fill="white" stroke="#fcd34d" stroke-width="1.5"/>
  <text x="120" y="158" font-family="system-ui,sans-serif" font-size="8.5" fill="#92400e" font-weight="600" text-anchor="middle">Gemini</text>

  <!-- AI model circles RIGHT -->
  <circle cx="480" cy="46" r="28" fill="white" stroke="#fcd34d" stroke-width="1.5"/>
  <text x="480" y="42" font-family="system-ui,sans-serif" font-size="8" fill="#92400e" font-weight="600" text-anchor="middle">Perp-</text>
  <text x="480" y="53" font-family="system-ui,sans-serif" font-size="8" fill="#92400e" font-weight="600" text-anchor="middle">lexity</text>

  <circle cx="538" cy="100" r="28" fill="white" stroke="#fcd34d" stroke-width="1.5"/>
  <text x="538" y="96" font-family="system-ui,sans-serif" font-size="8" fill="#92400e" font-weight="600" text-anchor="middle">Google</text>
  <text x="538" y="107" font-family="system-ui,sans-serif" font-size="8" fill="#92400e" font-weight="600" text-anchor="middle">AI</text>

  <circle cx="480" cy="154" r="28" fill="white" stroke="#fcd34d" stroke-width="1.5"/>
  <text x="480" y="150" font-family="system-ui,sans-serif" font-size="8" fill="#92400e" font-weight="600" text-anchor="middle">MS</text>
  <text x="480" y="161" font-family="system-ui,sans-serif" font-size="8" fill="#92400e" font-weight="600" text-anchor="middle">Copilot</text>
</svg>
