<svg viewBox="0 0 600 200" xmlns="http://www.w3.org/2000/svg">
  <rect width="600" height="200" fill="white"/>
  <rect width="600" height="200" fill="#eff6ff" opacity="0.5"/>

  <!-- Browser window -->
  <rect x="28" y="22" width="210" height="156" rx="10" fill="white" stroke="#dbeafe" stroke-width="1.5"/>
  <rect x="28" y="22" width="210" height="30" rx="10" fill="#f0f9ff"/>
  <rect x="28" y="44" width="210" height="8" fill="#f0f9ff"/>
  <circle cx="46" cy="37" r="4" fill="#fca5a5"/>
  <circle cx="59" cy="37" r="4" fill="#fde68a"/>
  <circle cx="72" cy="37" r="4" fill="#86efac"/>
  <rect x="85" y="30" width="128" height="14" rx="7" fill="#dbeafe"/>
  <text x="149" y="40.5" font-family="system-ui,sans-serif" font-size="7" fill="#93c5fd" text-anchor="middle">mysite.com</text>

  <!-- Page content -->
  <rect x="44" y="62" width="88" height="9" rx="4" fill="#bfdbfe"/>
  <rect x="44" y="78" width="172" height="5" rx="2.5" fill="#e2e8f0"/>
  <rect x="44" y="89" width="155" height="5" rx="2.5" fill="#e2e8f0"/>
  <rect x="44" y="100" width="163" height="5" rx="2.5" fill="#e2e8f0"/>
  <rect x="44" y="115" width="68" height="46" rx="5" fill="#dbeafe"/>
  <circle cx="63" cy="130" r="8" fill="#93c5fd" opacity="0.6"/>
  <polygon points="44,161 63,138 82,161" fill="#93c5fd" opacity="0.5"/>
  <polygon points="64,161 78,145 92,161" fill="#bfdbfe" opacity="0.8"/>
  <rect x="120" y="119" width="72" height="5" rx="2.5" fill="#e2e8f0"/>
  <rect x="120" y="130" width="60" height="5" rx="2.5" fill="#e2e8f0"/>
  <rect x="120" y="141" width="66" height="5" rx="2.5" fill="#e2e8f0"/>

  <!-- Divider -->
  <line x1="258" y1="22" x2="258" y2="178" stroke="#e2e8f0" stroke-width="1" stroke-dasharray="4,3"/>

  <!-- Score circle -->
  <circle cx="330" cy="100" r="52" fill="none" stroke="#dbeafe" stroke-width="9"/>
  <circle cx="330" cy="100" r="52" fill="none" stroke="#3b82f6" stroke-width="9"
    stroke-dasharray="294" stroke-dashoffset="35" stroke-linecap="round"
    transform="rotate(-90 330 100)"/>
  <circle cx="330" cy="100" r="40" fill="white"/>
  <text x="330" y="94" font-family="system-ui,sans-serif" font-size="28" fill="#1d4ed8" font-weight="800" text-anchor="middle">91</text>
  <text x="330" y="110" font-family="system-ui,sans-serif" font-size="9" fill="#94a3b8" text-anchor="middle">SEO Score</text>

  <!-- Metric bars -->
  <text x="406" y="52" font-family="system-ui,sans-serif" font-size="8.5" fill="#64748b" font-weight="600" letter-spacing="0.5">METRICS</text>

  <text x="406" y="72" font-family="system-ui,sans-serif" font-size="9" fill="#475569">Speed</text>
  <rect x="406" y="76" width="162" height="8" rx="4" fill="#e2e8f0"/>
  <rect x="406" y="76" width="144" height="8" rx="4" fill="#3b82f6"/>
  <text x="574" y="83.5" font-family="system-ui,sans-serif" font-size="8" fill="#3b82f6" font-weight="700" text-anchor="end">89</text>

  <text x="406" y="101" font-family="system-ui,sans-serif" font-size="9" fill="#475569">Crawl</text>
  <rect x="406" y="105" width="162" height="8" rx="4" fill="#e2e8f0"/>
  <rect x="406" y="105" width="154" height="8" rx="4" fill="#60a5fa"/>
  <text x="574" y="112.5" font-family="system-ui,sans-serif" font-size="8" fill="#3b82f6" font-weight="700" text-anchor="end">95</text>

  <text x="406" y="130" font-family="system-ui,sans-serif" font-size="9" fill="#475569">Index</text>
  <rect x="406" y="134" width="162" height="8" rx="4" fill="#e2e8f0"/>
  <rect x="406" y="134" width="148" height="8" rx="4" fill="#93c5fd"/>
  <text x="574" y="141.5" font-family="system-ui,sans-serif" font-size="8" fill="#3b82f6" font-weight="700" text-anchor="end">91</text>

  <text x="406" y="159" font-family="system-ui,sans-serif" font-size="9" fill="#475569">Meta</text>
  <rect x="406" y="163" width="162" height="8" rx="4" fill="#e2e8f0"/>
  <rect x="406" y="163" width="132" height="8" rx="4" fill="#bfdbfe"/>
  <text x="574" y="170.5" font-family="system-ui,sans-serif" font-size="8" fill="#3b82f6" font-weight="700" text-anchor="end">82</text>
</svg>
