<svg viewBox="0 0 600 200" xmlns="http://www.w3.org/2000/svg">
  <rect width="600" height="200" fill="white"/>
  <rect width="600" height="200" fill="#ecfeff" opacity="0.5"/>

  <!-- Circular score gauge -->
  <circle cx="170" cy="100" r="76" fill="none" stroke="#e2e8f0" stroke-width="14"/>
  <circle cx="170" cy="100" r="76" fill="none" stroke="#0891b2" stroke-width="14"
    stroke-dasharray="430" stroke-dashoffset="26" stroke-linecap="round"
    transform="rotate(-90 170 100)"/>
  <circle cx="170" cy="100" r="59" fill="white"/>
  <text x="170" y="92" font-family="system-ui,sans-serif" font-size="40" fill="#164e63" font-weight="800" text-anchor="middle">94</text>
  <text x="170" y="112" font-family="system-ui,sans-serif" font-size="10" fill="#94a3b8" text-anchor="middle">Overall Score</text>
  <text x="170" y="130" font-family="system-ui,sans-serif" font-size="11" fill="#0891b2" text-anchor="middle">★ ★ ★ ★ ★</text>

  <!-- Right: Breakdown bars -->
  <text x="290" y="32" font-family="system-ui,sans-serif" font-size="8.5" fill="#64748b" font-weight="600" letter-spacing="0.5">BREAKDOWN</text>

  <text x="290" y="56" font-family="system-ui,sans-serif" font-size="10" fill="#374151" font-weight="500">SEO</text>
  <rect x="324" y="47" width="258" height="11" rx="5.5" fill="#e2e8f0"/>
  <rect x="324" y="47" width="234" height="11" rx="5.5" fill="#3b82f6"/>
  <text x="588" y="57.5" font-family="system-ui,sans-serif" font-size="9" fill="#3b82f6" font-weight="700" text-anchor="end">91</text>

  <text x="290" y="84" font-family="system-ui,sans-serif" font-size="10" fill="#374151" font-weight="500">AEO</text>
  <rect x="324" y="75" width="258" height="11" rx="5.5" fill="#e2e8f0"/>
  <rect x="324" y="75" width="242" height="11" rx="5.5" fill="#a855f7"/>
  <text x="588" y="85.5" font-family="system-ui,sans-serif" font-size="9" fill="#a855f7" font-weight="700" text-anchor="end">94</text>

  <text x="290" y="112" font-family="system-ui,sans-serif" font-size="10" fill="#374151" font-weight="500">GEO</text>
  <rect x="324" y="103" width="258" height="11" rx="5.5" fill="#e2e8f0"/>
  <rect x="324" y="103" width="218" height="11" rx="5.5" fill="#f59e0b"/>
  <text x="588" y="113.5" font-family="system-ui,sans-serif" font-size="9" fill="#f59e0b" font-weight="700" text-anchor="end">85</text>

  <text x="290" y="140" font-family="system-ui,sans-serif" font-size="10" fill="#374151" font-weight="500">Schema</text>
  <rect x="324" y="131" width="258" height="11" rx="5.5" fill="#e2e8f0"/>
  <rect x="324" y="131" width="252" height="11" rx="5.5" fill="#10b981"/>
  <text x="588" y="141.5" font-family="system-ui,sans-serif" font-size="9" fill="#10b981" font-weight="700" text-anchor="end">98</text>

  <!-- Divider -->
  <line x1="290" y1="156" x2="590" y2="156" stroke="#e2e8f0" stroke-width="1"/>

  <text x="290" y="175" font-family="system-ui,sans-serif" font-size="9.5" fill="#64748b">3 critical fixes identified</text>
  <rect x="448" y="162" width="130" height="24" rx="12" fill="#0891b2"/>
  <text x="513" y="178" font-family="system-ui,sans-serif" font-size="9.5" fill="white" font-weight="600" text-anchor="middle">↓ Export PDF</text>
</svg>
